<?xml version="1.0" standalone="no"?>
<!DOCTYPE svg PUBLIC "-//W3C//DTD SVG 20010904//EN"
 "http://www.w3.org/TR/2001/REC-SVG-20010904/DTD/svg10.dtd">
<svg version="1.0" xmlns="http://www.w3.org/2000/svg"
 width="48.000000pt" height="48.000000pt" viewBox="0 0 48.000000 48.000000"
 preserveAspectRatio="xMidYMid meet">

<g transform="translate(0.000000,48.000000) scale(0.100000,-0.100000)"
fill="#000000" stroke="none">
<path d="M0 240 l0 -240 240 0 240 0 0 240 0 240 -240 0 -240 0 0 -240z m114
8 c7 -28 -9 -47 -26 -30 -9 9 -9 12 1 12 10 0 11 3 2 13 -6 8 -8 17 -4 20 12
12 21 7 27 -15z m80 9 c3 4 30 7 59 8 52 2 53 1 52 -26 0 -25 -3 -27 -25 -22
-14 4 -31 12 -38 20 -17 16 -23 17 -19 1 1 -8 -10 -13 -30 -14 -29 -1 -33 2
-33 24 0 19 3 22 13 13 8 -6 17 -8 21 -4z m152 -17 c0 -11 -5 -21 -10 -23 -10
-2 -18 32 -10 45 9 14 21 0 20 -22z m40 0 c0 -11 -5 -21 -10 -23 -10 -2 -18
32 -10 45 9 14 21 0 20 -22z m-236 6 c0 -24 -17 -28 -23 -6 -3 13 0 20 9 20 8
0 14 -6 14 -14z"/>
</g>
</svg>
